<svg width="50" height="68" viewBox="0 0 23 41" fill="none" xmlns="http://www.w3.org/2000/svg">
<path d="M22.5 37V38C22.5 39.3807 21.3807 40.5 20 40.5H3C1.61929 40.5 0.5 39.3807 0.5 38V37C0.5 35.6193 1.61929 34.5 3 34.5L20 34.5C21.3807 34.5 22.5 35.6193 22.5 37Z" stroke="#AAAAAA"/>
<path d="M22.5 21L22.5 33C22.5 33.8284 21.8284 34.5 21 34.5H2C1.17157 34.5 0.5 33.8284 0.5 33L0.5 21C0.5 17.4101 3.41015 14.5 7 14.5L16 14.5C19.5899 14.5 22.5 17.4101 22.5 21Z" stroke="#AAAAAA"/>
<line x1="17.5" y1="15" x2="17.5" y2="34" stroke="#AAAAAA"/>
<line x1="5" y1="29.5" x2="18" y2="29.5" stroke="#AAAAAA"/>
<line x1="5" y1="37.5" x2="18" y2="37.5" stroke="#AAAAAA"/>
<line x1="5" y1="24.5" x2="18" y2="24.5" stroke="#AAAAAA"/>
<line x1="5.5" y1="15" x2="5.5" y2="34" stroke="#AAAAAA"/>
<path fill-rule="evenodd" clip-rule="evenodd" d="M11.5 0C17.8514 0 23 5.14855 23 11.5C23 17.8514 17.8514 23 11.5 23C5.14855 23 0 17.8514 0 11.5C0 5.14855 5.14855 0 11.5 0ZM2.53575 13.5815C2.9382 15.3092 3.83098 16.884 5.10682 18.1166C6.38265 19.3492 7.98727 20.1871 9.72785 20.5298C9.5059 17.511 8.51345 15.6998 7.25995 14.6981C6.05935 13.7379 4.43095 13.3664 2.53575 13.5803V13.5815ZM15.74 14.697C14.4865 15.7009 13.4941 17.511 13.2722 20.5298C15.0129 20.1871 16.6176 19.3489 17.8934 18.1161C19.1693 16.8833 20.062 15.3083 20.4642 13.5803C18.569 13.3664 16.9406 13.7379 15.74 14.6981V14.697ZM11.5 2.3C9.3566 2.30029 7.28051 3.04868 5.62992 4.41605C3.97933 5.78342 2.85776 7.68403 2.4587 9.78995L2.40925 10.0751L4.95075 9.56685C5.62005 9.43345 6.256 9.0804 6.9667 8.60085L7.51525 8.21905C8.4318 7.56815 9.78995 6.9 11.5 6.9C13.0962 6.9 14.3853 7.4819 15.295 8.0891L16.0333 8.60085C16.6543 9.0206 17.2201 9.3426 17.7997 9.50705L18.0492 9.56685L20.5908 10.0751C20.2506 7.90847 19.1478 5.9345 17.4811 4.50896C15.8143 3.08343 13.6932 2.30005 11.5 2.3Z" fill="#AAAAAA" fill-opacity="0.666667"/>
</svg>
