<svg width="22" height="22" viewBox="0 0 22 22" fill="none" xmlns="http://www.w3.org/2000/svg">
<path d="M10.6667 10.6667C9.2 10.6667 7.94445 10.1444 6.9 9.1C5.85556 8.05556 5.33333 6.8 5.33333 5.33333C5.33333 3.86667 5.85556 2.61111 6.9 1.56667C7.94445 0.522222 9.2 0 10.6667 0C12.1333 0 13.3889 0.522222 14.4333 1.56667C15.4778 2.61111 16 3.86667 16 5.33333C16 6.8 15.4778 8.05556 14.4333 9.1C13.3889 10.1444 12.1333 10.6667 10.6667 10.6667ZM0 21.3333V17.6C0 16.8444 0.194667 16.1498 0.584 15.516C0.973334 14.8822 1.48978 14.3991 2.13333 14.0667C3.51111 13.3778 4.91111 12.8609 6.33333 12.516C7.75556 12.1711 9.2 11.9991 10.6667 12C12.1333 12 13.5778 12.1724 15 12.5173C16.4222 12.8622 17.8222 13.3787 19.2 14.0667C19.8444 14.4 20.3613 14.8836 20.7507 15.5173C21.14 16.1511 21.3342 16.8453 21.3333 17.6V21.3333H0Z" fill="black"/>
</svg>
