<svg width="32" height="32" viewBox="0 0 32 32" fill="none" xmlns="http://www.w3.org/2000/svg">
<g clip-path="url(#clip0_650_10135)">
<g filter="url(#filter0_d_650_10135)">
<rect x="-5" y="-3" width="42" height="40" rx="8" fill="white"/>
</g>
<path d="M2.66797 29.3335V17.3335L5.93463 8.00016H10.668V5.3335H15.068C14.8013 6.20016 14.668 7.08905 14.668 8.00016C14.668 8.91127 14.8013 9.80016 15.068 10.6668H7.8013L6.4013 14.6668H17.468C18.3346 15.5335 19.3346 16.1948 20.468 16.6508C21.6013 17.1068 22.7791 17.3344 24.0013 17.3335C24.4457 17.3335 24.8791 17.3055 25.3013 17.2495C25.7235 17.1935 26.1791 17.1104 26.668 17.0002V29.3335H22.668V26.6668H6.66797V29.3335H2.66797ZM8.66797 22.6668C9.22352 22.6668 9.69597 22.4722 10.0853 22.0828C10.4746 21.6935 10.6689 21.2215 10.668 20.6668C10.668 20.1113 10.4733 19.6388 10.084 19.2495C9.69463 18.8602 9.22263 18.6659 8.66797 18.6668C8.11241 18.6668 7.63997 18.8615 7.25063 19.2508C6.8613 19.6402 6.66708 20.1122 6.66797 20.6668C6.66797 21.2224 6.86264 21.6948 7.25197 22.0842C7.6413 22.4735 8.1133 22.6677 8.66797 22.6668ZM20.668 22.6668C21.2235 22.6668 21.696 22.4722 22.0853 22.0828C22.4746 21.6935 22.6689 21.2215 22.668 20.6668C22.668 20.1113 22.4733 19.6388 22.084 19.2495C21.6946 18.8602 21.2226 18.6659 20.668 18.6668C20.1124 18.6668 19.64 18.8615 19.2506 19.2508C18.8613 19.6402 18.6671 20.1122 18.668 20.6668C18.668 21.2224 18.8626 21.6948 19.252 22.0842C19.6413 22.4735 20.1133 22.6677 20.668 22.6668Z" fill="black"/>
<path d="M23.75 8.7V10.8C23.75 10.9983 23.822 11.1647 23.966 11.2991C24.11 11.4335 24.288 11.5005 24.5 11.5C24.7125 11.5 24.8907 11.4328 25.0347 11.2984C25.1788 11.164 25.2505 10.9979 25.25 10.8V8.7H27.5C27.7125 8.7 27.8907 8.6328 28.0347 8.4984C28.1787 8.364 28.2505 8.19787 28.25 8C28.25 7.80167 28.178 7.6353 28.034 7.5009C27.89 7.3665 27.712 7.29953 27.5 7.3H25.25V5.2C25.25 5.00167 25.178 4.8353 25.034 4.7009C24.89 4.5665 24.712 4.49953 24.5 4.5C24.2875 4.5 24.1092 4.5672 23.9652 4.7016C23.8212 4.836 23.7495 5.00213 23.75 5.2V7.3H21.5C21.2875 7.3 21.1092 7.3672 20.9652 7.5016C20.8212 7.636 20.7495 7.80213 20.75 8C20.75 8.19833 20.822 8.3647 20.966 8.4991C21.11 8.6335 21.288 8.70047 21.5 8.7H23.75ZM24.5 15C23.4625 15 22.4875 14.8161 21.575 14.4484C20.6625 14.0807 19.8687 13.582 19.1937 12.9525C18.5188 12.3225 17.9845 11.5817 17.591 10.73C17.1975 9.87833 17.0005 8.96833 17 8C17 7.03167 17.197 6.12167 17.591 5.27C17.985 4.41833 18.5193 3.6775 19.1937 3.0475C19.8687 2.4175 20.6625 1.91887 21.575 1.5516C22.4875 1.18433 23.4625 1.00047 24.5 1C25.5375 1 26.5125 1.18387 27.425 1.5516C28.3375 1.91933 29.1312 2.41797 29.8062 3.0475C30.4812 3.6775 31.0157 4.41833 31.4097 5.27C31.8037 6.12167 32.0005 7.03167 32 8C32 8.96833 31.803 9.87833 31.409 10.73C31.015 11.5817 30.4807 12.3225 29.8062 12.9525C29.1312 13.5825 28.3375 14.0814 27.425 14.4491C26.5125 14.8168 25.5375 15.0005 24.5 15ZM24.5 13.6C26.175 13.6 27.5937 13.0575 28.7562 11.9725C29.9187 10.8875 30.5 9.56333 30.5 8C30.5 6.43667 29.9187 5.1125 28.7562 4.0275C27.5937 2.9425 26.175 2.4 24.5 2.4C22.825 2.4 21.4062 2.9425 20.2437 4.0275C19.0812 5.1125 18.5 6.43667 18.5 8C18.5 9.56333 19.0812 10.8875 20.2437 11.9725C21.4062 13.0575 22.825 13.6 24.5 13.6Z" fill="#0C8587"/>
</g>
<defs>
<filter id="filter0_d_650_10135" x="-9" y="-3" width="50" height="48" filterUnits="userSpaceOnUse" color-interpolation-filters="sRGB">
<feFlood flood-opacity="0" result="BackgroundImageFix"/>
<feColorMatrix in="SourceAlpha" type="matrix" values="0 0 0 0 0 0 0 0 0 0 0 0 0 0 0 0 0 0 127 0" result="hardAlpha"/>
<feOffset dy="4"/>
<feGaussianBlur stdDeviation="2"/>
<feComposite in2="hardAlpha" operator="out"/>
<feColorMatrix type="matrix" values="0 0 0 0 0 0 0 0 0 0 0 0 0 0 0 0 0 0 0.25 0"/>
<feBlend mode="normal" in2="BackgroundImageFix" result="effect1_dropShadow_650_10135"/>
<feBlend mode="normal" in="SourceGraphic" in2="effect1_dropShadow_650_10135" result="shape"/>
</filter>
<clipPath id="clip0_650_10135">
<rect width="32" height="32" fill="white"/>
</clipPath>
</defs>
</svg>
