<svg width="32" height="32" viewBox="0 0 32 32" fill="none" xmlns="http://www.w3.org/2000/svg">
<path d="M22.75 9.25V11.5C22.75 11.7125 22.822 11.8907 22.966 12.0347C23.11 12.1787 23.288 12.2505 23.5 12.25C23.7125 12.25 23.8907 12.178 24.0347 12.034C24.1788 11.89 24.2505 11.712 24.25 11.5V9.25H26.5C26.7125 9.25 26.8907 9.178 27.0347 9.034C27.1787 8.89 27.2505 8.712 27.25 8.5C27.25 8.2875 27.178 8.10925 27.034 7.96525C26.89 7.82125 26.712 7.7495 26.5 7.75H24.25V5.5C24.25 5.2875 24.178 5.10925 24.034 4.96525C23.89 4.82125 23.712 4.7495 23.5 4.75C23.2875 4.75 23.1092 4.822 22.9652 4.966C22.8212 5.11 22.7495 5.288 22.75 5.5V7.75H20.5C20.2875 7.75 20.1092 7.822 19.9652 7.966C19.8212 8.11 19.7495 8.288 19.75 8.5C19.75 8.7125 19.822 8.89075 19.966 9.03475C20.11 9.17875 20.288 9.2505 20.5 9.25H22.75ZM23.5 16C22.4625 16 21.4875 15.803 20.575 15.409C19.6625 15.015 18.8687 14.4807 18.1937 13.8062C17.5188 13.1312 16.9845 12.3375 16.591 11.425C16.1975 10.5125 16.0005 9.5375 16 8.5C16 7.4625 16.197 6.4875 16.591 5.575C16.985 4.6625 17.5193 3.86875 18.1937 3.19375C18.8687 2.51875 19.6625 1.9845 20.575 1.591C21.4875 1.1975 22.4625 1.0005 23.5 1C24.5375 1 25.5125 1.197 26.425 1.591C27.3375 1.985 28.1312 2.51925 28.8062 3.19375C29.4812 3.86875 30.0157 4.6625 30.4097 5.575C30.8037 6.4875 31.0005 7.4625 31 8.5C31 9.5375 30.803 10.5125 30.409 11.425C30.015 12.3375 29.4807 13.1312 28.8062 13.8062C28.1312 14.4812 27.3375 15.0157 26.425 15.4097C25.5125 15.8037 24.5375 16.0005 23.5 16ZM23.5 14.5C25.175 14.5 26.5937 13.9187 27.7562 12.7562C28.9187 11.5937 29.5 10.175 29.5 8.5C29.5 6.825 28.9187 5.40625 27.7562 4.24375C26.5937 3.08125 25.175 2.5 23.5 2.5C21.825 2.5 20.4062 3.08125 19.2437 4.24375C18.0812 5.40625 17.5 6.825 17.5 8.5C17.5 10.175 18.0812 11.5937 19.2437 12.7562C20.4062 13.9187 21.825 14.5 23.5 14.5Z" fill="white"/>
<path d="M2.66675 29.3334V17.3334L5.93341 8.00004H10.6667V5.33337H15.0667C14.8001 6.20004 14.6667 7.08893 14.6667 8.00004C14.6667 8.91115 14.8001 9.80004 15.0667 10.6667H7.80008L6.40008 14.6667H17.4667C18.3334 15.5334 19.3334 16.1947 20.4667 16.6507C21.6001 17.1067 22.7779 17.3343 24.0001 17.3334C24.4445 17.3334 24.8779 17.3054 25.3001 17.2494C25.7223 17.1934 26.1779 17.1103 26.6667 17V29.3334H22.6667V26.6667H6.66675V29.3334H2.66675ZM8.66675 22.6667C9.2223 22.6667 9.69475 22.472 10.0841 22.0827C10.4734 21.6934 10.6676 21.2214 10.6667 20.6667C10.6667 20.1112 10.4721 19.6387 10.0827 19.2494C9.69341 18.86 9.22141 18.6658 8.66675 18.6667C8.11119 18.6667 7.63875 18.8614 7.24941 19.2507C6.86008 19.64 6.66586 20.112 6.66675 20.6667C6.66675 21.2223 6.86141 21.6947 7.25075 22.084C7.64008 22.4734 8.11208 22.6676 8.66675 22.6667ZM20.6667 22.6667C21.2223 22.6667 21.6947 22.472 22.0841 22.0827C22.4734 21.6934 22.6676 21.2214 22.6667 20.6667C22.6667 20.1112 22.4721 19.6387 22.0827 19.2494C21.6934 18.86 21.2214 18.6658 20.6667 18.6667C20.1112 18.6667 19.6387 18.8614 19.2494 19.2507C18.8601 19.64 18.6659 20.112 18.6667 20.6667C18.6667 21.2223 18.8614 21.6947 19.2507 22.084C19.6401 22.4734 20.1121 22.6676 20.6667 22.6667Z" fill="white"/>
</svg>
