<svg width="25" height="25" viewBox="0 0 25 25" fill="none" xmlns="http://www.w3.org/2000/svg">
<g clip-path="url(#clip0_645_9905)">
<path d="M9.07574 8.69998L9.33597 8.66225L9.45235 8.42647L12.3054 2.64646L12.3055 2.64617C12.3468 2.56244 12.4106 2.49193 12.4899 2.44262C12.5692 2.39332 12.6607 2.36719 12.754 2.36719C12.8473 2.36719 12.9388 2.39332 13.0181 2.44262C13.0974 2.49193 13.1612 2.56244 13.2025 2.64617L13.2026 2.6464L16.0546 8.4264L16.171 8.6622L16.4312 8.69997L22.8112 9.62597L22.8113 9.62599C22.8988 9.63866 22.9814 9.67429 23.0506 9.72925C23.1198 9.78421 23.1732 9.85654 23.2054 9.93886L23.6711 9.75689L23.2054 9.93886C23.2375 10.0212 23.2473 10.1106 23.2337 10.1979C23.2207 10.2811 23.1869 10.3596 23.1356 10.4262L23.0792 10.4877L18.4653 14.9778L18.2767 15.1614L18.3212 15.4208L19.4122 21.7758L19.4122 21.7759C19.4273 21.8634 19.4188 21.9532 19.3877 22.0363C19.3565 22.1193 19.3038 22.1926 19.235 22.2486C19.1662 22.3046 19.0838 22.3412 18.9961 22.3548C18.9123 22.3678 18.8266 22.3593 18.7471 22.3301L18.6742 22.2965L12.9931 19.3028L12.7603 19.1801L12.5273 19.3026L6.82132 22.3026L6.82112 22.3027C6.74271 22.344 6.65473 22.3637 6.5662 22.3598C6.47767 22.3558 6.39177 22.3285 6.31729 22.2805C6.24282 22.2324 6.18244 22.1655 6.14235 22.0865C6.10409 22.011 6.08561 21.9272 6.08855 21.8428L6.09801 21.7628L7.1858 15.4207L7.23028 15.1614L7.04175 14.9779L2.41975 10.4789L2.41929 10.4784C2.3558 10.4168 2.3098 10.3394 2.286 10.2542C2.2622 10.1689 2.26145 10.0789 2.28382 9.99328C2.30619 9.90766 2.35088 9.82952 2.41333 9.76682C2.47292 9.707 2.54664 9.66329 2.62758 9.63968L2.7098 9.62295L9.07574 8.69998Z" fill="white" stroke="white"/>
</g>
<defs>
<clipPath id="clip0_645_9905">
<rect width="24" height="24" fill="white" transform="translate(0.761719 0.865234)"/>
</clipPath>
</defs>
</svg>
