<svg width="81" height="81" viewBox="0 0 81 81" fill="none" xmlns="http://www.w3.org/2000/svg">
<g clip-path="url(#clip0_559_1151)">
<path fill-rule="evenodd" clip-rule="evenodd" d="M40.0579 7.21558C58.4679 7.21558 73.3913 22.1389 73.3913 40.5489C73.3913 58.9589 58.4679 73.8822 40.0579 73.8822C21.6479 73.8822 6.72461 58.9589 6.72461 40.5489C6.72461 22.1389 21.6479 7.21558 40.0579 7.21558ZM14.0746 46.5822C15.2411 51.5902 17.8289 56.1547 21.527 59.7275C25.2251 63.3002 29.8761 65.729 34.9213 66.7222C34.2779 57.9722 31.4013 52.7222 27.7679 49.8189C24.2879 47.0356 19.5679 45.9589 14.0746 46.5789V46.5822ZM52.3479 49.8156C48.7146 52.7256 45.8379 57.9722 45.1946 66.7222C50.2402 65.7288 54.8916 63.2994 58.5897 59.7261C62.2878 56.1527 64.8753 51.5874 66.0413 46.5789C60.5479 45.9589 55.8279 47.0356 52.3479 49.8189V49.8156ZM40.0579 13.8822C33.8452 13.8831 27.8276 16.0523 23.0432 20.0157C18.2589 23.9791 15.008 29.4881 13.8513 35.5922L13.7079 36.4189L21.0746 34.9456C23.0146 34.5589 24.8579 33.5356 26.9179 32.1456L28.5079 31.0389C31.1646 29.1522 35.1013 27.2156 40.0579 27.2156C44.6846 27.2156 48.4213 28.9022 51.0579 30.6622L53.1979 32.1456C54.9979 33.3622 56.6379 34.2956 58.3179 34.7722L59.0413 34.9456L66.4079 36.4189C65.422 30.1387 62.2255 24.417 57.3943 20.285C52.5632 16.153 46.4151 13.8824 40.0579 13.8822Z" fill="white"/>
</g>
<defs>
<clipPath id="clip0_559_1151">
<rect width="80" height="80" fill="white" transform="translate(0.0585938 0.548828)"/>
</clipPath>
</defs>
</svg>
