<svg width="25" height="29" viewBox="0 0 25 29" fill="none" xmlns="http://www.w3.org/2000/svg">
<path d="M0.440126 21.3803C1.14082 19.9912 2.62008 19.0603 4.40934 19.2908C6.30141 19.5266 8.17801 19.8781 10.0291 20.3435C12.8743 21.0714 15.3671 22.4707 17.2102 23.7481L17.833 24.1918L18.3993 24.6196L18.906 25.0197L19.3505 25.3881L19.7285 25.7158L20.0399 25.9942C21.2332 27.0831 20.4221 28.8623 19.0702 28.9928L18.9117 29H6.74642C4.36546 29 2.38651 27.7748 0.936985 25.9173C-0.158653 24.5152 -0.25208 22.752 0.441541 21.3803H0.440126ZM22.4265 0C23.6906 0 24.2356 1.218 24.5031 2.3345L24.5881 2.7231L24.622 2.9087C24.8259 4.06435 24.9349 5.5796 24.9787 7.1369C25.0637 10.2182 24.891 13.8098 24.5159 15.5397C23.8619 18.5586 22.9021 20.6567 21.7527 21.9211C20.5835 23.2116 19.0037 23.793 17.5471 23.0463C16.4302 22.475 15.7635 21.1164 15.3983 19.9578C14.8652 18.2692 14.8737 16.4502 15.4223 14.7668C15.7196 13.8504 16.2547 13.1109 16.8436 12.4077L17.3574 11.8117C17.9831 11.094 18.6102 10.3762 19.0377 9.50185C19.6605 8.22585 19.8304 6.8295 19.8828 5.42735L19.9026 4.58635L19.9153 3.77435L19.9238 3.57425L19.9521 3.16825C20.0866 1.60515 20.6089 0 22.4265 0Z" fill="#0C8587"/>
</svg>
