<svg width="51" height="49" viewBox="0 0 51 49" fill="none" xmlns="http://www.w3.org/2000/svg">
<g filter="url(#filter0_d_902_485)">
<rect x="4.34375" y="0.492188" width="42" height="40" rx="8" fill="white"/>
</g>
<path d="M18.3438 31.2722C17.6104 31.2722 16.9824 31.035 16.4597 30.5607C15.9371 30.0864 15.6762 29.5169 15.6771 28.8522V13.1222H14.3438V10.7022H21.0104V9.49219H29.0104V10.7022H35.6771V13.1222H34.3438V28.8522C34.3438 29.5177 34.0824 30.0876 33.5598 30.5619C33.0371 31.0362 32.4095 31.273 31.6771 31.2722H18.3438ZM31.6771 13.1222H18.3438V28.8522H31.6771V13.1222ZM21.0104 26.4322H23.6771V15.5422H21.0104V26.4322ZM26.3438 26.4322H29.0104V15.5422H26.3438V26.4322Z" fill="#0C8587"/>
<defs>
<filter id="filter0_d_902_485" x="0.34375" y="0.492188" width="50" height="48" filterUnits="userSpaceOnUse" color-interpolation-filters="sRGB">
<feFlood flood-opacity="0" result="BackgroundImageFix"/>
<feColorMatrix in="SourceAlpha" type="matrix" values="0 0 0 0 0 0 0 0 0 0 0 0 0 0 0 0 0 0 127 0" result="hardAlpha"/>
<feOffset dy="4"/>
<feGaussianBlur stdDeviation="2"/>
<feComposite in2="hardAlpha" operator="out"/>
<feColorMatrix type="matrix" values="0 0 0 0 0 0 0 0 0 0 0 0 0 0 0 0 0 0 0.25 0"/>
<feBlend mode="normal" in2="BackgroundImageFix" result="effect1_dropShadow_902_485"/>
<feBlend mode="normal" in="SourceGraphic" in2="effect1_dropShadow_902_485" result="shape"/>
</filter>
</defs>
</svg>
