<svg width="13" height="12" viewBox="0 0 13 12" fill="none" xmlns="http://www.w3.org/2000/svg">
<path d="M4.1791 3.86827L4.43274 3.8344L4.55362 3.60885L6.1767 0.580301L6.17686 0.579998C6.17753 0.578752 6.18179 0.571862 6.19437 0.564656C6.20718 0.557317 6.2253 0.551758 6.24631 0.551758C6.26731 0.551758 6.28543 0.557317 6.29824 0.564656C6.31082 0.571862 6.31508 0.578751 6.31575 0.579998L6.31588 0.580237L7.93839 3.60879L8.05924 3.83435L8.31288 3.86826L11.9425 4.35346L11.9426 4.35347C11.9618 4.35604 11.9765 4.36287 11.9858 4.36967L12.2809 3.96607L11.9858 4.36967C11.9889 4.37192 11.9911 4.37398 11.9928 4.37572L11.9802 4.38833L9.36014 6.73677L9.15082 6.92439L9.20233 7.20072L9.82205 10.5255C9.82061 10.5274 9.81789 10.5305 9.81308 10.5341C9.80404 10.5409 9.78954 10.5478 9.77036 10.5506L9.84107 11.0456L9.77036 10.5506C9.75397 10.5529 9.73763 10.5517 9.72321 10.5476L9.69531 10.5358L6.46804 8.96947L6.24997 8.86363L6.03181 8.96927L2.78564 10.5412L2.78545 10.5413C2.77168 10.548 2.75363 10.5522 2.73381 10.5514C2.714 10.5506 2.69732 10.5449 2.68561 10.538L2.43029 10.9679L2.6856 10.538C2.67766 10.5333 2.67324 10.5288 2.67101 10.526L2.67221 10.5166L3.28973 7.20064L3.34118 6.92439L3.13195 6.73681L0.502473 4.37946L0.501994 4.37904C0.500673 4.37785 0.4996 4.37678 0.498732 4.37582C0.499462 4.37502 0.500337 4.37413 0.501383 4.37316C0.506898 4.36806 0.516357 4.36176 0.530018 4.35729L0.562519 4.3512L4.1791 3.86827Z" fill="#0C8587" stroke="#0C8587"/>
</svg>
