<?xml version="1.0" standalone="no"?>
<svg version="1.0" xmlns="http://www.w3.org/2000/svg"
 width="50.000000pt" height="50.000000pt" viewBox="0 0 50.000000 50.000000"
 preserveAspectRatio="xMidYMid meet">

<g transform="translate(0.000000,50.000000) scale(0.100000,-0.100000)"
fill="white" stroke="none">
<path d="M160 459 c-52 -23 -86 -53 -106 -91 -33 -63 -2 -80 37 -21 60 93 173
119 260 60 90 -60 114 -172 56 -258 -79 -118 -238 -116 -316 4 -26 40 -51 49
-51 18 0 -27 40 -82 79 -108 71 -48 151 -55 226 -19 60 28 87 56 114 116 27
60 26 123 -3 185 -28 60 -56 87 -116 114 -57 26 -123 26 -180 0z"/>
<path d="M255 329 c-4 -6 3 -21 15 -34 l23 -24 -134 -3 c-111 -3 -134 -6 -134
-18 0 -12 23 -15 134 -18 l134 -3 -23 -24 c-19 -20 -21 -28 -12 -37 10 -10 23
-2 59 35 l47 47 -44 45 c-46 47 -55 52 -65 34z"/>
</g>
</svg>
