<svg width="129" height="40" viewBox="0 0 129 40" fill="none" xmlns="http://www.w3.org/2000/svg">
<g filter="url(#filter0_d_569_2833)">
<path fill-rule="evenodd" clip-rule="evenodd" d="M66.0157 0.20398C64.812 0.551385 64.1201 2.08142 64.5803 3.37824C64.9752 4.49135 65.5491 4.79253 67.2747 4.79253C68.6897 4.79253 68.76 4.77324 69.2955 4.23971C69.7486 3.78803 69.8644 3.51483 69.9282 2.74738C69.9835 2.08316 69.9209 1.64313 69.7141 1.24463C69.1943 0.242735 67.5169 -0.229102 66.0157 0.20398ZM116.025 0.452499C113.463 1.07501 111.146 2.93716 109.961 5.32745L109.287 6.68614V9.12822C109.287 11.4142 109.317 11.6339 109.755 12.5649C110.14 13.3836 112.072 16.3229 115.87 21.8703C117.077 23.6332 119.1 23.5557 120.307 21.7003C120.574 21.2903 120.837 20.9158 120.892 20.868C121.241 20.5663 125.843 13.4399 126.222 12.6158C126.865 11.2165 127.105 9.39568 126.865 7.73773C126.148 2.77588 120.921 -0.736739 116.025 0.452499ZM12.166 0.646969C7.40884 1.4106 4.10114 4.39907 3.11598 8.82391C2.75923 10.4266 2.75731 13.3652 3.11179 15.0968C3.76863 18.3045 5.79422 20.9307 8.63463 22.2575C12.0461 23.8508 16.4008 23.8344 19.7174 22.2161C20.9518 21.6137 21.4335 21.1078 21.5964 20.2432C21.751 19.4212 21.5629 18.8239 20.96 18.2229C20.4904 17.7549 20.36 17.715 19.5303 17.7852C19.0283 17.8276 18.1075 18.0834 17.4842 18.3538C16.0354 18.9821 13.6916 19.1451 12.2238 18.7198C10.3877 18.1878 9.09024 16.833 8.45573 14.7854C8.00744 13.3386 8.05887 10.1557 8.55233 8.81488C9.54603 6.11437 11.5179 4.94599 14.849 5.08432C16.3049 5.14463 16.6936 5.23152 17.8071 5.74576C19.2008 6.38913 19.9886 6.46421 20.6712 6.01844C21.5254 5.46058 21.8402 3.78004 21.2567 2.8925C20.4852 1.7189 17.5496 0.717353 14.6071 0.623855C13.5522 0.590487 12.4537 0.600914 12.166 0.646969ZM55.7639 0.791214C54.988 1.07119 54.5268 1.58352 54.3765 2.3322C54.188 3.27188 54.2661 17.9748 54.4654 19.0493C55.0539 22.222 57.2631 23.7347 60.7922 23.3814C61.8096 23.2795 62.0989 23.1766 62.5048 22.772C62.947 22.3313 62.9934 22.1695 62.9934 21.0675C62.9934 19.5563 62.7489 19.2264 61.7526 19.3943C60.7981 19.5549 59.9118 19.2162 59.5467 18.5509C59.2761 18.058 59.2355 17.1529 59.1574 9.89393C59.0737 2.11114 59.0564 1.77191 58.7234 1.40556C58.2676 0.903829 57.9905 0.769664 57.1522 0.645405C56.7278 0.582493 56.1843 0.639496 55.7639 0.791214ZM93.4147 0.715442C92.6734 0.935632 92.1601 1.46482 91.9474 2.22793C91.7024 3.10782 91.6992 20.8908 91.9441 21.7693C92.0422 22.1216 92.3617 22.6103 92.6539 22.8555C93.1053 23.2342 93.3562 23.3011 94.3227 23.3011C95.3838 23.3011 95.4999 23.2614 96.053 22.7102L96.6458 22.1193L96.6484 19.2778L96.651 16.4364L97.2151 17.0806C100.427 20.7488 102.381 22.8136 102.848 23.0346C103.165 23.1846 103.882 23.3011 104.488 23.3011C105.446 23.3011 105.622 23.2449 106.075 22.7931C106.632 22.2383 106.759 21.3461 106.382 20.6393C106.271 20.4306 105.167 19.1034 103.929 17.6899C102.691 16.2765 101.703 15.0506 101.734 14.9658C101.764 14.8808 102.705 13.7915 103.823 12.5449C106.093 10.0149 106.401 9.43252 105.989 8.45079C105.513 7.31508 103.556 6.95099 102.424 7.78779C102.015 8.08983 99.8276 10.4066 97.474 13.0307L96.6458 13.954V7.96296C96.6458 2.1605 96.6345 1.95751 96.2835 1.51296C96.0844 1.26044 95.79 0.985162 95.6296 0.901396C95.1433 0.646969 93.9751 0.548952 93.4147 0.715442ZM120.741 3.39075C121.913 3.95383 123.254 5.30504 123.856 6.53042C124.218 7.26694 124.283 7.65101 124.283 9.05036C124.283 10.5213 124.227 10.8136 123.776 11.7304C122.526 14.2668 120.486 15.4392 117.611 15.2732C114.759 15.1088 112.699 13.4583 111.892 10.6916C111.221 8.38927 112.353 5.35874 114.418 3.93245C116.246 2.6697 118.786 2.45211 120.741 3.39075ZM115.822 4.89437C115.581 4.983 115.126 5.44615 114.813 5.92338C114.418 6.52451 114.124 6.79284 113.858 6.79667C112.919 6.81005 112.454 8.02449 113.34 8.14979C113.712 8.20262 113.718 8.22851 113.47 8.70609C113.327 8.98154 113.21 9.60788 113.21 10.0978C113.21 10.8732 113.284 11.0602 113.776 11.5402C114.087 11.8435 114.42 12.3263 114.517 12.613C114.667 13.0593 114.78 13.1344 115.301 13.1344C115.841 13.1344 115.92 13.0755 116 12.613L116.09 12.0917L118.05 12.0425L120.011 11.9933V12.4123C120.011 12.9601 120.393 13.2601 121.003 13.1904C121.412 13.1436 121.502 13.0428 121.547 12.5779C121.583 12.2025 121.715 11.9857 121.951 11.9108C122.434 11.7582 122.974 10.819 122.974 10.131C122.975 9.81729 122.86 9.28637 122.719 8.9513C122.472 8.35972 122.477 8.33731 122.894 8.17916C123.708 7.87051 123.197 6.7911 122.237 6.7911C121.887 6.7911 121.683 6.61367 121.318 5.99324C121.016 5.4783 120.641 5.10865 120.261 4.9505C119.592 4.67192 116.534 4.63317 115.822 4.89437ZM120.287 6.92145L120.728 7.66005H118.011H115.295L115.593 7.18213C116.283 6.07683 116.274 6.08048 118.129 6.13366L119.845 6.18284L120.287 6.92145ZM28.0332 7.56012C26.3724 7.94089 25.0192 8.51388 24.6371 8.99788C24.0816 9.70172 24.1543 10.8592 24.7941 11.4968C25.4179 12.1184 25.6272 12.1233 27.2617 11.5531C29.0822 10.9182 31.6293 10.7879 32.4253 11.2889C32.969 11.6315 33.3481 12.4629 33.3503 13.3186C33.3514 13.658 33.1998 13.6869 30.4308 13.8746C27.0577 14.1029 25.503 14.4926 24.5156 15.3566C22.796 16.8615 22.7978 19.8493 24.5193 21.6124C26.7267 23.8733 30.9837 24.065 32.8154 21.9858C33.4002 21.322 33.5257 21.2641 33.5257 21.6588C33.5257 22.1468 34.0148 22.8822 34.4799 23.0934C35.1057 23.3775 36.4036 23.3544 36.9972 23.0485C37.8939 22.5864 37.972 22.0981 37.972 16.9578C37.972 11.766 37.8554 10.9984 36.8587 9.62699C35.7229 8.06428 34.1859 7.45585 31.1718 7.37573C29.8205 7.33993 28.7089 7.4051 28.0332 7.56012ZM42.5927 7.61695C41.3992 8.21113 41.3727 8.37867 41.3725 15.3674C41.3722 22.1996 41.4011 22.4139 42.4044 23.0046C42.7289 23.1956 43.2813 23.3011 43.9576 23.3011C44.8296 23.3011 45.0969 23.2258 45.5384 22.8555C45.8307 22.6103 46.1501 22.1216 46.2483 21.7693C46.3464 21.417 46.4272 19.5307 46.4277 17.5775C46.4286 14.3826 46.4638 13.9542 46.7775 13.3082C47.2414 12.3527 48.1316 11.877 50.0278 11.5712C52.0705 11.2415 52.4443 10.8936 52.4443 9.32113C52.4443 8.37554 52.3791 8.13971 52.0084 7.74277C51.6002 7.30569 51.498 7.28119 50.4023 7.35748C48.8786 7.46349 47.4601 8.13866 46.7721 9.08529L46.269 9.77749L46.1501 9.28359C45.9294 8.3672 45.5369 7.80777 44.9407 7.55943C44.1463 7.22871 43.3325 7.24852 42.5927 7.61695ZM65.9778 7.61C65.5953 7.79804 65.2748 8.14788 65.0662 8.60546C64.7742 9.2464 64.7444 9.85205 64.7419 15.2199C64.7402 18.6077 64.8129 21.3937 64.9121 21.7498C65.1869 22.7355 65.7928 23.1801 66.9782 23.2656C68.229 23.3558 68.9347 23.0355 69.3342 22.1963C69.5818 21.6761 69.6193 20.7681 69.6186 15.2805C69.618 9.25109 69.602 8.93723 69.266 8.38823C68.6519 7.38407 67.1581 7.03059 65.9778 7.61ZM74.3838 7.55647C73.2059 8.08757 73.1997 8.12302 73.1392 14.6905C73.1092 17.9447 73.1357 20.9546 73.1984 21.379C73.2792 21.9271 73.4793 22.3171 73.8895 22.7258C74.4258 23.2604 74.5477 23.3011 75.6146 23.3011C76.6364 23.3011 76.8254 23.2453 77.3321 22.7945L77.9016 22.2877L77.994 17.8849C78.0974 12.9478 78.1743 12.5854 79.299 11.7305C79.8116 11.3407 80.176 11.2222 81.0262 11.1682C81.992 11.1068 82.1611 11.1478 82.6567 11.5635C82.9608 11.8185 83.2898 12.3153 83.388 12.6676C83.4867 13.0214 83.5669 15.1585 83.5674 17.4412C83.5686 22.0249 83.665 22.551 84.5923 23.0289C85.2558 23.3708 86.7435 23.381 87.3897 23.048C88.4163 22.5188 88.4848 22.0797 88.4151 16.4682C88.3567 11.7686 88.3248 11.3287 87.9783 10.4739C87.4512 9.17271 86.8917 8.51196 85.8125 7.91621C84.9329 7.43065 84.7602 7.39937 82.9582 7.40006C80.8166 7.40093 80.0749 7.64528 78.7298 8.79281L78.0364 9.38438L77.772 8.71373C77.6266 8.34495 77.2976 7.90596 77.0409 7.73825C76.4212 7.33367 75.0812 7.24191 74.3838 7.55647ZM115.929 9.66088C115.992 9.91131 115.947 10.2078 115.824 10.356C115.515 10.7269 114.825 10.6765 114.605 10.2669C114.323 9.74117 114.67 9.22415 115.306 9.22415C115.709 9.22415 115.843 9.318 115.929 9.66088ZM121.371 9.4327C121.896 9.9565 121.375 10.7316 120.623 10.5437C120.285 10.4591 120.185 10.3223 120.185 9.94503C120.185 9.676 120.237 9.40368 120.301 9.34007C120.491 9.15116 121.145 9.20781 121.371 9.4327ZM33.3503 16.8274C33.3474 18.3347 32.4152 19.6419 31.0899 19.9977C29.0432 20.547 27.3904 19.1456 28.1431 17.4991C28.4644 16.7961 29.8402 16.4194 32.2616 16.3712C33.3397 16.3497 33.3514 16.3545 33.3503 16.8274ZM32.1374 26.0375C31.5177 26.072 30.9097 26.1839 30.7861 26.2861C30.4764 26.5422 30.5043 27.2949 30.8374 27.6616C31.0865 27.936 31.4044 27.9562 34.1067 27.8701C37.3156 27.7678 37.7105 27.656 37.7105 26.8491C37.7105 26.0452 37.325 25.9051 35.2134 25.9414C34.1412 25.9599 32.7571 26.0031 32.1374 26.0375ZM41.4717 26.1809C41.3211 26.3312 41.1978 26.6385 41.1978 26.8637C41.1978 27.676 41.4878 27.7587 44.7137 27.8675C47.3239 27.9555 47.7773 27.9318 48.0411 27.6938C48.3752 27.3924 48.435 26.8373 48.1769 26.4307C47.9958 26.1449 46.1355 25.9494 43.3461 25.923C42.1088 25.9114 41.6836 25.9698 41.4717 26.1809ZM6.43414 26.5C4.00018 27.4032 2.84484 30.2453 3.95014 32.6111C5.53669 36.0071 10.5661 35.8451 12.0347 32.3508C12.3699 31.5531 12.3699 29.8211 12.0347 29.0234C11.6686 28.1524 10.7561 27.1682 9.92092 26.7435C9.01439 26.2826 7.33613 26.1653 6.43414 26.5ZM116.626 26.5182C115.623 26.9004 114.849 27.5528 114.304 28.4772C113.885 29.1883 113.821 29.4806 113.821 30.6871C113.821 31.8935 113.885 32.1858 114.304 32.897C115.811 35.452 119.313 35.8518 121.343 33.7002C122.244 32.7442 122.519 32.0407 122.519 30.6871C122.519 28.9151 121.684 27.55 120.103 26.7386C119.208 26.2791 117.533 26.1729 116.626 26.5182ZM22.7151 26.7242C20.4105 26.9953 19.9253 27.2035 19.9253 27.9211C19.9253 28.6313 20.4046 28.9164 21.3966 28.7956C21.882 28.7367 23.2208 28.5985 24.3716 28.4887C26.5919 28.2768 27.0742 28.0773 27.0742 27.3705C27.0742 26.3707 26.4748 26.2819 22.7151 26.7242ZM52.052 26.619C51.7554 26.9284 51.7768 27.7297 52.0886 27.9876C52.2365 28.1098 53.6042 28.2996 55.3482 28.4398C58.0957 28.6607 58.38 28.6572 58.6681 28.3974C59.0051 28.0933 59.0744 27.5372 58.8238 27.143C58.6219 26.825 57.496 26.6555 54.6239 26.5106C52.7889 26.418 52.2218 26.4419 52.052 26.619ZM62.6795 27.5068C62.433 27.7525 62.4084 28.4958 62.6351 28.8529C62.7475 29.03 63.7116 29.2174 65.9018 29.4876C68.6219 29.8232 69.0578 29.8402 69.4013 29.6233C69.8506 29.3397 69.9382 28.5031 69.5518 28.1835C69.4187 28.0733 68.0259 27.8297 66.4568 27.6418C63.0984 27.2398 62.9526 27.2346 62.6795 27.5068ZM14.8687 28.0215C14.533 28.1133 13.9838 28.2619 13.6481 28.3515C12.5756 28.6381 12.5348 28.7155 12.9768 29.6223C13.2255 30.132 13.4591 30.4024 13.6035 30.3473C13.7301 30.2988 14.3215 30.1365 14.9179 29.9865C16.3581 29.6244 16.9255 28.9782 16.3944 28.3048C16.0906 27.9199 15.5843 27.8257 14.8687 28.0215ZM73.8975 29.0291C73.5031 29.4634 73.6638 30.2026 74.2012 30.4245C74.4143 30.5124 75.9449 30.754 77.6026 30.9613C80.4937 31.323 80.6302 31.3258 80.9591 31.0293C81.3837 30.6463 81.4006 30.0449 80.9966 29.6932C80.7969 29.5194 79.6967 29.2997 77.8144 29.0578C74.3044 28.6068 74.2811 28.6067 73.8975 29.0291ZM85.5301 30.3454C85.083 30.6582 85.0145 31.3214 85.3907 31.6965C85.6966 32.0013 86.0427 32.064 89.4857 32.4382L92.1772 32.7307L92.4935 32.3414C92.8891 31.8544 92.8914 31.6005 92.5046 31.1608C92.2495 30.8708 91.7563 30.7667 89.4969 30.5251C88.0104 30.3663 86.598 30.1991 86.3583 30.1537C86.1161 30.1079 85.748 30.193 85.5301 30.3454ZM109.816 30.7862C108.271 30.9645 107.754 31.5526 108.385 32.4135C108.643 32.7642 108.918 32.7854 110.863 32.6038L112.204 32.4785L112.099 31.8435C112.041 31.4942 111.993 31.0717 111.992 30.9043C111.99 30.5653 111.813 30.5557 109.816 30.7862ZM96.855 31.5039C96.5525 31.8054 96.5982 32.6036 96.9339 32.8817C97.1483 33.0591 98.035 33.1354 100.405 33.1799C103.444 33.2369 103.604 33.2232 103.953 32.8758C104.387 32.4432 104.421 31.9448 104.044 31.5684C103.814 31.3391 103.233 31.2954 100.417 31.2954C98.0418 31.2954 97.0033 31.3562 96.855 31.5039Z" fill="#0C8587"/>
<path fill-rule="evenodd" clip-rule="evenodd" d="M116.025 0.452374C113.463 1.07489 111.146 2.93704 109.961 5.32733L109.287 6.68601L108.915 8.14966C108.915 10.4357 109.317 11.6338 109.755 12.5648C110.14 13.3835 112.072 16.3228 115.87 21.8701C117.077 23.633 119.1 23.5555 120.307 21.7002C120.574 21.2902 120.835 20.9157 120.887 20.8679C121.262 20.5243 125.84 13.4473 126.215 12.6312C126.864 11.2172 127.105 9.40129 126.865 7.73761C126.148 2.77576 120.921 -0.736864 116.025 0.452374ZM12.166 0.646844C7.40884 1.41047 4.10114 4.39895 3.11598 8.82379C2.75923 10.4265 2.75731 13.3651 3.11179 15.0967C3.76863 18.3043 5.79422 20.9306 8.63463 22.2573C12.0461 23.8506 16.4008 23.8343 19.7174 22.216C20.9518 21.6136 21.4335 21.1077 21.5964 20.2431C21.751 19.4211 21.5629 18.8238 20.96 18.2228C20.4904 17.7548 20.36 17.7148 19.5303 17.785C19.0283 17.8274 18.1075 18.0833 17.4842 18.3537C16.0354 18.9819 13.6916 19.1449 12.2238 18.7197C10.3877 18.1877 9.09024 16.8329 8.45573 14.7853C8.00744 13.3385 8.05887 10.1555 8.55233 8.81475C9.54603 6.11424 11.5179 4.94586 14.849 5.0842C16.3049 5.1445 16.6936 5.2314 17.8071 5.74564C19.2008 6.38901 19.9886 6.46408 20.6712 6.01831C21.5254 5.46045 21.8402 3.77991 21.2567 2.89237C20.4852 1.71877 17.5496 0.717228 14.6071 0.62373C13.5522 0.590362 12.4537 0.60079 12.166 0.646844ZM120.741 3.39062C121.913 3.9537 123.254 5.30491 123.856 6.5303C124.218 7.26681 124.283 7.65089 124.283 9.05024C124.283 10.5212 124.227 10.8135 123.776 11.7302C122.526 14.2667 120.486 15.4391 117.611 15.2731C114.759 15.1087 112.699 13.4582 111.892 10.6915C111.221 8.38914 112.353 5.35861 114.418 3.93233C116.246 2.66957 118.786 2.45199 120.741 3.39062ZM115.822 4.89425C115.581 4.98288 115.126 5.44603 114.813 5.92325C114.418 6.52439 114.124 6.79272 113.858 6.79654C112.919 6.80992 112.454 8.02436 113.34 8.14966C113.712 8.20249 113.718 8.22839 113.47 8.70596C113.327 8.98142 113.21 9.60775 113.21 10.0977C113.21 10.8731 113.284 11.0601 113.776 11.5401C114.087 11.8434 114.42 12.3262 114.517 12.6129C114.667 13.0592 114.78 13.1343 115.301 13.1343C115.841 13.1343 115.92 13.0754 116 12.6129L116.09 12.0915L118.05 12.0424L120.011 11.9932V12.4122C120.011 12.96 120.393 13.2599 121.003 13.1902C121.412 13.1435 121.502 13.0427 121.547 12.5778C121.583 12.2024 121.715 11.9855 121.951 11.9106C122.434 11.758 122.974 10.8189 122.974 10.1309C122.975 9.81717 122.86 9.28624 122.719 8.95118C122.472 8.3596 122.477 8.33718 122.894 8.17903C123.708 7.87038 123.197 6.79098 122.237 6.79098C121.887 6.79098 121.683 6.61354 121.318 5.99311C121.016 5.47818 120.641 5.10853 120.261 4.95038C119.592 4.6718 116.534 4.63304 115.822 4.89425ZM120.287 6.92132L120.728 7.65992H118.011H115.295L115.593 7.182C116.283 6.07671 116.274 6.08036 118.129 6.13354L119.845 6.18272L120.287 6.92132ZM28.0332 7.56C26.3724 7.94077 25.0192 8.51375 24.6371 8.99775C24.0816 9.7016 24.1543 10.859 24.7941 11.4967C25.4179 12.1183 25.6272 12.1232 27.2617 11.553C29.0822 10.9181 31.6293 10.7878 32.4253 11.2888C32.969 11.6313 33.3481 12.4628 33.3503 13.3185C33.3514 13.6579 33.1998 13.6868 30.4308 13.8744C27.0577 14.1028 25.503 14.4924 24.5156 15.3565C22.796 16.8614 22.7978 19.8491 24.5193 21.6122C26.7267 23.8732 30.9837 24.0649 32.8154 21.9857C33.4002 21.3218 33.5257 21.264 33.5257 21.6586C33.5257 22.1466 34.0148 22.8821 34.4799 23.0933C35.1057 23.3774 36.4036 23.3543 36.9972 23.0484C37.8939 22.5863 37.972 22.098 37.972 16.9576C37.972 11.7659 37.8554 10.9982 36.8587 9.62687C35.7229 8.06416 34.1859 7.45572 31.1718 7.37561C29.8205 7.33981 28.7089 7.40498 28.0332 7.56ZM42.5927 7.61682C41.3992 8.21101 41.3727 8.37854 41.3725 15.3673C41.3722 22.1995 41.4011 22.4137 42.4044 23.0044C42.7289 23.1954 43.2813 23.3009 43.9576 23.3009C44.8296 23.3009 45.0969 23.2257 45.5384 22.8553C45.8307 22.6101 46.1501 22.1214 46.2483 21.7692C46.3464 21.4169 46.4272 19.5306 46.4277 17.5774C46.4286 14.3824 46.4638 13.954 46.7775 13.3081C47.2414 12.3526 48.1316 11.8769 50.0278 11.571C52.0705 11.2414 52.4443 10.8934 52.4443 9.321C52.4443 8.37541 52.3791 8.13958 52.0084 7.74265C51.6002 7.30557 51.498 7.28107 50.4023 7.35736C48.8786 7.46337 47.4601 8.13854 46.7721 9.08517L46.269 9.77737L46.1501 9.28346C45.9294 8.36707 45.5369 7.80764 44.9407 7.5593C44.1463 7.22858 43.3325 7.24839 42.5927 7.61682ZM115.929 9.66076C115.992 9.91119 115.947 10.2077 115.824 10.3559C115.515 10.7268 114.825 10.6764 114.605 10.2668C114.323 9.74105 114.67 9.22403 115.306 9.22403C115.709 9.22403 115.843 9.31787 115.929 9.66076ZM121.371 9.43257C121.896 9.95637 121.375 10.7315 120.623 10.5436C120.285 10.459 120.185 10.3222 120.185 9.9449C120.185 9.67588 120.237 9.40355 120.301 9.33994C120.491 9.15103 121.145 9.20769 121.371 9.43257ZM33.3503 16.8273C33.3474 18.3346 32.4152 19.6418 31.0899 19.9976C29.0432 20.5469 27.3904 19.1455 28.1431 17.499C28.4644 16.796 29.8402 16.4192 32.2616 16.3711C33.3397 16.3495 33.3514 16.3544 33.3503 16.8273ZM32.1374 26.0374C31.5177 26.0718 30.9097 26.1837 30.7861 26.2859C30.4764 26.5421 30.5043 27.2948 30.8374 27.6615C31.0865 27.9359 31.4044 27.956 34.1067 27.87C37.3156 27.7677 37.7105 27.6559 37.7105 26.849C37.7105 26.0451 37.325 25.905 35.2134 25.9413C34.1412 25.9597 32.7571 26.003 32.1374 26.0374ZM41.4717 26.1808C41.3211 26.3311 41.1978 26.6384 41.1978 26.8636C41.1978 27.6759 41.4878 27.7586 44.7137 27.8674C47.3239 27.9554 47.7773 27.9317 48.0411 27.6936C48.3752 27.3923 48.435 26.8372 48.1769 26.4305C47.9958 26.1448 46.1355 25.9493 43.3461 25.9229C42.1088 25.9112 41.6836 25.9696 41.4717 26.1808ZM6.43414 26.4999C4.00018 27.403 2.84484 30.2452 3.95014 32.611C5.53669 36.007 10.5661 35.845 12.0347 32.3506C12.3699 31.553 12.3699 29.821 12.0347 29.0233C11.6686 28.1523 10.7561 27.1681 9.92092 26.7433C9.01439 26.2825 7.33613 26.1651 6.43414 26.4999ZM116.626 26.5181C115.623 26.9003 114.849 27.5527 114.304 28.4771C113.885 29.1882 113.821 29.4805 113.821 30.687C113.821 31.8934 113.885 32.1857 114.304 32.8969C115.811 35.4519 119.313 35.8516 121.343 33.7001C122.244 32.7441 122.519 32.0406 122.519 30.687C122.519 28.915 121.684 27.5499 120.103 26.7385C119.208 26.279 117.533 26.1728 116.626 26.5181ZM22.7151 26.7241C20.4105 26.9952 19.9253 27.2034 19.9253 27.9209C19.9253 28.6312 20.4046 28.9162 21.3966 28.7954C21.882 28.7365 23.2208 28.5984 24.3716 28.4885C26.5919 28.2767 27.0742 28.0772 27.0742 27.3704C27.0742 26.3706 26.4748 26.2818 22.7151 26.7241ZM52.052 26.6189C51.7554 26.9283 51.7769 27.7296 52.0886 27.9875C52.2365 28.1097 53.6042 28.2995 55.3482 28.4397C58.0957 28.6606 58.3801 28.6571 58.6681 28.3973C59.0051 28.0932 59.0744 27.537 58.8238 27.1429C58.6219 26.8249 57.496 26.6554 54.6239 26.5105C52.7889 26.4178 52.2218 26.4418 52.052 26.6189ZM62.6795 27.5066C62.433 27.7524 62.4084 28.4957 62.6351 28.8528C62.7475 29.0299 63.7116 29.2172 65.9018 29.4875C68.6219 29.8231 69.0578 29.8401 69.4013 29.6232C69.8506 29.3396 69.9382 28.503 69.5518 28.1834C69.4187 28.0732 68.0259 27.8295 66.4568 27.6417C63.0984 27.2397 62.9526 27.2345 62.6795 27.5066ZM14.8687 28.0214C14.533 28.1132 13.9838 28.2617 13.6481 28.3514C12.5756 28.638 12.5348 28.7153 12.9768 29.6222C13.2255 30.1319 13.4591 30.4023 13.6035 30.3472C13.7301 30.2987 14.3215 30.1364 14.9179 29.9864C16.3581 29.6242 16.9255 28.9781 16.3944 28.3047C16.0906 27.9197 15.5843 27.8255 14.8687 28.0214ZM73.8975 29.029C73.5031 29.4633 73.6638 30.2024 74.2012 30.4244C74.4143 30.5123 75.9449 30.7539 77.6026 30.9612C80.4937 31.3229 80.6302 31.3256 80.9591 31.0292C81.3837 30.6461 81.4006 30.0448 80.9966 29.6931C80.7969 29.5193 79.6967 29.2996 77.8144 29.0577C74.3044 28.6067 74.2811 28.6065 73.8975 29.029ZM85.5301 30.3453C85.083 30.6581 85.0145 31.3213 85.3907 31.6963C85.6966 32.0012 86.0427 32.0639 89.4857 32.4381L92.1772 32.7306L92.4935 32.3413C92.8891 31.8543 92.8914 31.6004 92.5047 31.1607C92.2496 30.8707 91.7563 30.7666 89.4969 30.525C88.0104 30.3661 86.598 30.199 86.3583 30.1536C86.1161 30.1077 85.748 30.1929 85.5301 30.3453ZM109.816 30.786C108.271 30.9643 107.754 31.5524 108.385 32.4134C108.643 32.7641 108.918 32.7853 110.863 32.6037L112.204 32.4784L112.099 31.8434C112.041 31.494 111.993 31.0716 111.992 30.9042C111.99 30.5651 111.813 30.5556 109.816 30.786ZM96.855 31.5038C96.5525 31.8053 96.5982 32.6035 96.9339 32.8816C97.1483 33.059 98.035 33.1353 100.405 33.1798C103.444 33.2368 103.604 33.2231 103.953 32.8757C104.387 32.4431 104.421 31.9447 104.044 31.5682C103.814 31.339 103.233 31.2952 100.417 31.2952C98.0418 31.2952 97.0033 31.3561 96.855 31.5038Z" fill="white"/>
<path fill-rule="evenodd" clip-rule="evenodd" d="M126.331 9.83171C126.212 9.96744 126.114 10.2015 126.114 10.3519C126.114 11.1146 125.246 12.9981 124.072 14.7854C122.144 17.7212 119.404 21.605 119.017 21.9523C118.832 22.1184 118.371 22.3671 117.994 22.5047L117.308 22.7552L117.979 22.7675C118.386 22.7748 118.841 22.6434 119.139 22.4323C119.579 22.12 124.948 14.283 125.649 12.9307C126.03 12.194 126.414 11.0229 126.535 10.2234C126.646 9.49682 126.639 9.48343 126.331 9.83171Z" fill="#DBDBDB"/>
</g>
<defs>
<filter id="filter0_d_569_2833" x="0.847168" y="0.0429688" width="128.109" height="39.0493" filterUnits="userSpaceOnUse" color-interpolation-filters="sRGB">
<feFlood flood-opacity="0" result="BackgroundImageFix"/>
<feColorMatrix in="SourceAlpha" type="matrix" values="0 0 0 0 0 0 0 0 0 0 0 0 0 0 0 0 0 0 127 0" result="hardAlpha"/>
<feOffset dy="2"/>
<feGaussianBlur stdDeviation="1"/>
<feComposite in2="hardAlpha" operator="out"/>
<feColorMatrix type="matrix" values="0 0 0 0 0 0 0 0 0 0 0 0 0 0 0 0 0 0 0.25 0"/>
<feBlend mode="normal" in2="BackgroundImageFix" result="effect1_dropShadow_569_2833"/>
<feBlend mode="normal" in="SourceGraphic" in2="effect1_dropShadow_569_2833" result="shape"/>
</filter>
</defs>
</svg>
