<svg width="22" height="23" viewBox="0 0 26 23" fill="none" xmlns="http://www.w3.org/2000/svg">
<path d="M4.08921 0.684486C6.64144 0.343698 9.21356 0.173102 11.7885 0.17383C14.3988 0.17383 16.9685 0.347313 19.4878 0.684486C21.235 0.918128 22.5423 2.23464 22.8996 3.85754C22.6325 3.80781 22.3624 3.77557 22.0911 3.76101C19.8948 3.64122 17.6936 3.64122 15.4973 3.76101C12.1094 3.94569 9.68679 6.78717 9.68679 9.96442V13.0983C9.68679 15.0752 10.6256 16.9247 12.1528 18.0817L7.97739 22.2509C7.83043 22.3975 7.64327 22.4973 7.43954 22.5377C7.23582 22.5781 7.02467 22.5573 6.83276 22.478C6.64086 22.3986 6.4768 22.2643 6.36132 22.0919C6.24584 21.9195 6.18411 21.7168 6.18392 21.5094V16.6925C5.48195 16.6253 4.78278 16.5442 4.08921 16.4518C2.02673 16.1762 0.579346 14.391 0.579346 12.3736V4.76273C0.579346 2.74669 2.02673 0.9601 4.08921 0.684486Z" fill="white"/>
<path d="M18.7941 5.76953C17.7264 5.76953 16.6643 5.79751 15.6121 5.85627C13.4095 5.97659 11.7883 7.82894 11.7883 9.9639V13.0978C11.7883 15.223 13.3954 17.0697 15.5854 17.204C15.8853 17.2222 16.1851 17.2376 16.485 17.2516C16.7652 17.2642 17.0244 17.3775 17.2108 17.565L20.5035 20.8528C20.6505 20.9994 20.8378 21.0992 21.0416 21.1396C21.2455 21.1799 21.4568 21.159 21.6487 21.0795C21.8407 21 22.0047 20.8655 22.1201 20.6929C22.2355 20.5203 22.297 20.3174 22.2969 20.1099V17.2138C24.3328 16.941 25.7998 15.167 25.7998 13.1356V9.9639C25.7998 7.82894 24.1787 5.97659 21.9761 5.85627C20.9164 5.79847 19.8553 5.76955 18.7941 5.76953Z" fill="white"/>
</svg>
