<svg width="77" height="65" viewBox="0 0 77 65" fill="none" xmlns="http://www.w3.org/2000/svg">
<path d="M70.7243 10.8527C68.2523 10.8527 53.612 10.8527 51.4514 10.8527V3.18534C51.4514 1.61578 50.1789 0.343262 48.6093 0.343262H28.5805C27.0109 0.343262 25.7384 1.61578 25.7384 3.18534V10.8525C23.5297 10.8525 9.22389 10.8525 6.46556 10.8525C3.33116 10.8525 0.78125 13.4024 0.78125 16.5367V59.0701C0.78125 62.2043 3.33116 64.7544 6.46556 64.7544C8.52212 64.7544 68.5584 64.7544 70.7244 64.7544C73.8587 64.7544 76.4087 62.2045 76.4087 59.0701V16.5367C76.4086 13.4026 73.8587 10.8527 70.7243 10.8527ZM17.9156 16.5367H20.9983V39.4519H17.9156V16.5367ZM20.9983 59.0702H17.9156V54.123H20.9983V59.0702ZM22.9972 48.4387H15.9165V45.1362H22.9972V48.4387ZM30.135 23.7647C30.135 21.4287 32.0286 19.535 34.3647 19.535C36.7007 19.535 38.5943 21.4287 38.5943 23.7647C38.5943 26.1007 36.7007 27.9944 34.3647 27.9944C32.0286 27.9944 30.135 26.1007 30.135 23.7647ZM44.8779 44.1145L42.0011 54.8506C41.8123 55.555 40.9317 55.7909 40.4162 55.2754L32.5567 47.416C32.0409 46.9001 32.2771 46.0196 32.9814 45.831L43.7175 42.9542C44.4221 42.7655 45.0667 43.4101 44.8779 44.1145ZM45.7669 10.8521H31.4227V6.02742H45.7669V10.8521ZM56.1916 16.5367H59.2743V39.4519H56.1916V16.5367ZM59.2743 59.0702H56.1916V54.123H59.2743V59.0702ZM61.2732 48.4387H54.1925V45.1362H61.2732V48.4387Z" fill="#FFFBFB"/>
</svg>
