<svg width="27" height="28" viewBox="0 0 27 28" fill="none" xmlns="http://www.w3.org/2000/svg">
<path d="M12.228 15.1349V19.1349C12.228 19.5127 12.356 19.8296 12.612 20.0856C12.868 20.3416 13.1845 20.4692 13.5614 20.4683C13.9391 20.4683 14.256 20.3403 14.512 20.0843C14.768 19.8283 14.8956 19.5118 14.8947 19.1349V15.1349H18.8947C19.2725 15.1349 19.5894 15.0069 19.8454 14.7509C20.1014 14.4949 20.2289 14.1785 20.228 13.8016C20.228 13.4238 20.1 13.1069 19.844 12.8509C19.588 12.5949 19.2716 12.4674 18.8947 12.4683H14.8947V8.46826C14.8947 8.09048 14.7667 7.7736 14.5107 7.5176C14.2547 7.2616 13.9383 7.13404 13.5614 7.13493C13.1836 7.13493 12.8667 7.26293 12.6107 7.51893C12.3547 7.77493 12.2271 8.09137 12.228 8.46826V12.4683H8.22803C7.85025 12.4683 7.53336 12.5963 7.27736 12.8523C7.02136 13.1083 6.89381 13.4247 6.89469 13.8016C6.89469 14.1794 7.02269 14.4963 7.27869 14.7523C7.53469 15.0083 7.85114 15.1358 8.22803 15.1349H12.228ZM13.5614 27.1349C11.7169 27.1349 9.98358 26.7847 8.36136 26.0843C6.73914 25.3838 5.32803 24.434 4.12803 23.2349C2.92803 22.0349 1.97825 20.6238 1.27869 19.0016C0.579139 17.3794 0.228916 15.646 0.228027 13.8016C0.228027 11.9572 0.57825 10.2238 1.27869 8.6016C1.97914 6.97937 2.92892 5.56826 4.12803 4.36826C5.32803 3.16826 6.73914 2.21848 8.36136 1.51893C9.98358 0.819373 11.7169 0.469151 13.5614 0.468262C15.4058 0.468262 17.1391 0.818484 18.7614 1.51893C20.3836 2.21937 21.7947 3.16915 22.9947 4.36826C24.1947 5.56826 25.1449 6.97937 25.8454 8.6016C26.5458 10.2238 26.8956 11.9572 26.8947 13.8016C26.8947 15.646 26.5445 17.3794 25.844 19.0016C25.1436 20.6238 24.1938 22.0349 22.9947 23.2349C21.7947 24.4349 20.3836 25.3851 18.7614 26.0856C17.1391 26.786 15.4058 27.1358 13.5614 27.1349ZM13.5614 24.4683C16.5391 24.4683 19.0614 23.4349 21.128 21.3683C23.1947 19.3016 24.228 16.7794 24.228 13.8016C24.228 10.8238 23.1947 8.30159 21.128 6.23493C19.0614 4.16826 16.5391 3.13493 13.5614 3.13493C10.5836 3.13493 8.06136 4.16826 5.99469 6.23493C3.92803 8.30159 2.89469 10.8238 2.89469 13.8016C2.89469 16.7794 3.92803 19.3016 5.99469 21.3683C8.06136 23.4349 10.5836 24.4683 13.5614 24.4683Z" fill="white"/>
</svg>
