<svg width="23" height="27" viewBox="0 0 23 27" fill="none" xmlns="http://www.w3.org/2000/svg">
<path d="M20 20.5C21.3807 20.5 22.5 21.6193 22.5 23V24C22.5 25.3807 21.3807 26.5 20 26.5L3 26.5C1.61929 26.5 0.5 25.3807 0.5 24V23C0.5 21.6193 1.61929 20.5 3 20.5L20 20.5Z" fill="#2CC786" stroke="black"/>
<path d="M16 0.5C19.5899 0.5 22.5 3.41015 22.5 7L22.5 19C22.5 19.8284 21.8284 20.5 21 20.5L2 20.5C1.17157 20.5 0.5 19.8284 0.5 19L0.5 7C0.5 3.41015 3.41015 0.5 7 0.5L16 0.5Z" fill="#2CC786" stroke="black"/>
<line x1="17.5" y1="1" x2="17.5" y2="20" stroke="black"/>
<line x1="5" y1="15.5" x2="18" y2="15.5" stroke="black"/>
<line x1="5" y1="23.5" x2="18" y2="23.5" stroke="black"/>
<line x1="5" y1="10.5" x2="18" y2="10.5" stroke="black"/>
<line x1="5.5" y1="1" x2="5.5" y2="20" stroke="black"/>
</svg>
