<svg width="25" height="25" viewBox="0 0 25 25" fill="none" xmlns="http://www.w3.org/2000/svg">
<g clip-path="url(#clip0_645_9893)">
<path d="M9.004 8.20516L2.624 9.13016L2.511 9.15316C2.33994 9.19857 2.18399 9.28857 2.05909 9.41396C1.93419 9.53935 1.8448 9.69565 1.80006 9.86688C1.75532 10.0381 1.75682 10.2182 1.80442 10.3886C1.85202 10.5591 1.94401 10.7139 2.071 10.8372L6.693 15.3362L5.603 21.6912L5.59 21.8012C5.57953 21.9781 5.61626 22.1546 5.69645 22.3127C5.77663 22.4707 5.89738 22.6046 6.04633 22.7007C6.19528 22.7967 6.36709 22.8514 6.54415 22.8593C6.7212 22.8671 6.89716 22.8277 7.054 22.7452L12.76 19.7452L18.453 22.7452L18.553 22.7912C18.7181 22.8562 18.8974 22.8761 19.0728 22.8489C19.2481 22.8217 19.413 22.7484 19.5506 22.6364C19.6882 22.5245 19.7936 22.3779 19.8558 22.2118C19.9181 22.0457 19.9351 21.866 19.905 21.6912L18.814 15.3362L23.438 10.8362L23.516 10.7512C23.6274 10.6139 23.7005 10.4496 23.7277 10.275C23.755 10.1003 23.7354 9.92153 23.6711 9.75689C23.6068 9.59224 23.4999 9.44759 23.3615 9.33767C23.223 9.22775 23.0579 9.15649 22.883 9.13116L16.503 8.20516L13.651 2.42516C13.5685 2.25769 13.4407 2.11667 13.2822 2.01806C13.1237 1.91945 12.9407 1.86719 12.754 1.86719C12.5673 1.86719 12.3843 1.91945 12.2258 2.01806C12.0673 2.11667 11.9395 2.25769 11.857 2.42516L9.004 8.20516Z" fill="#060606"/>
</g>
<defs>
<clipPath id="clip0_645_9893">
<rect width="24" height="24" fill="white" transform="translate(0.761719 0.865234)"/>
</clipPath>
</defs>
</svg>
