<svg width="23" height="23" viewBox="0 0 23 23" fill="none" xmlns="http://www.w3.org/2000/svg">
<path fill-rule="evenodd" clip-rule="evenodd" d="M11.5 0C17.8514 0 23 5.14855 23 11.5C23 17.8514 17.8514 23 11.5 23C5.14855 23 0 17.8514 0 11.5C0 5.14855 5.14855 0 11.5 0ZM2.53575 13.5815C2.9382 15.3092 3.83098 16.884 5.10682 18.1166C6.38265 19.3492 7.98727 20.1871 9.72785 20.5298C9.5059 17.511 8.51345 15.6998 7.25995 14.6981C6.05935 13.7379 4.43095 13.3664 2.53575 13.5803V13.5815ZM15.7401 14.697C14.4866 15.7009 13.4941 17.511 13.2722 20.5298C15.0129 20.1871 16.6176 19.3489 17.8934 18.1161C19.1693 16.8833 20.062 15.3083 20.4643 13.5803C18.569 13.3664 16.9407 13.7379 15.7401 14.6981V14.697ZM11.5 2.3C9.3566 2.30029 7.28051 3.04868 5.62992 4.41605C3.97933 5.78342 2.85776 7.68403 2.4587 9.78995L2.40925 10.0751L4.95075 9.56685C5.62005 9.43345 6.256 9.0804 6.9667 8.60085L7.51525 8.21905C8.4318 7.56815 9.78995 6.9 11.5 6.9C13.0962 6.9 14.3854 7.4819 15.295 8.0891L16.0333 8.60085C16.6543 9.0206 17.2201 9.3426 17.7997 9.50705L18.0492 9.56685L20.5907 10.0751C20.2506 7.90846 19.1478 5.9345 17.4811 4.50896C15.8143 3.08343 13.6932 2.30005 11.5 2.3Z" fill="#AAAAAA" fill-opacity="0.666667"/>
</svg>
