<svg width="22" height="26" viewBox="0 0 25 26" fill="none" xmlns="http://www.w3.org/2000/svg">
<path d="M16.555 22.5H6.125C4.40125 22.5 3 21.0988 3 19.375C3 17.6513 4.40125 16.25 6.125 16.25H14.875C17.2875 16.25 19.25 14.2875 19.25 11.875C19.25 9.4625 17.2875 7.5 14.875 7.5H8.79875C8.33969 8.39985 7.77122 9.23955 7.10625 10H14.875C15.9087 10 16.75 10.8413 16.75 11.875C16.75 12.9088 15.9087 13.75 14.875 13.75H6.125C3.02375 13.75 0.5 16.2738 0.5 19.375C0.5 22.4763 3.02375 25 6.125 25H18.1163C17.5029 24.2285 16.9791 23.3897 16.555 22.5ZM4.25 0C2.1825 0 0.5 1.6825 0.5 3.75C0.5 7.735 4.25 10 4.25 10C4.25 10 8 7.73375 8 3.75C8 1.6825 6.3175 0 4.25 0ZM4.25 5.625C4.00369 5.62492 3.75981 5.57632 3.53228 5.48199C3.30475 5.38765 3.09803 5.24943 2.92392 5.0752C2.74981 4.90097 2.61172 4.69416 2.51753 4.46657C2.42335 4.23898 2.37492 3.99506 2.375 3.74875C2.37508 3.50244 2.42368 3.25856 2.51801 3.03103C2.61235 2.8035 2.75057 2.59678 2.9248 2.42267C3.09903 2.24856 3.30584 2.11047 3.53343 2.01628C3.76102 1.9221 4.00494 1.87367 4.25125 1.87375C4.7487 1.87392 5.2257 2.07168 5.57733 2.42355C5.92896 2.77542 6.12642 3.25255 6.12625 3.75C6.12608 4.24745 5.92832 4.72445 5.57645 5.07608C5.22459 5.42772 4.74745 5.62517 4.25 5.625Z" fill="white"/>
<path d="M21.25 15.333C19.1825 15.333 17.5 17.0155 17.5 19.083C17.5 23.068 21.25 25.333 21.25 25.333C21.25 25.333 25 23.0668 25 19.083C25 17.0155 23.3175 15.333 21.25 15.333ZM21.25 20.958C21.0037 20.9579 20.7598 20.9093 20.5323 20.815C20.3047 20.7207 20.098 20.5824 19.9239 20.4082C19.7498 20.234 19.6117 20.0272 19.5175 19.7996C19.4234 19.572 19.3749 19.3281 19.375 19.0818C19.3751 18.8354 19.4237 18.5916 19.518 18.364C19.6123 18.1365 19.7506 17.9298 19.9248 17.7557C20.099 17.5816 20.3058 17.4435 20.5334 17.3493C20.761 17.2551 21.0049 17.2067 21.2512 17.2068C21.7487 17.2069 22.2257 17.4047 22.5773 17.7566C22.929 18.1084 23.1264 18.5856 23.1262 19.083C23.1261 19.5805 22.9283 20.0575 22.5765 20.4091C22.2246 20.7607 21.7474 20.9582 21.25 20.958Z" fill="white"/>
</svg>
